<mxfile host="app.diagrams.net" modified="2020-08-31T08:14:39.352Z" agent="5.0 (Macintosh; Intel Mac OS X 10_15_6) AppleWebKit/537.36 (KHTML, like Gecko) Chrome/84.0.4147.135 Safari/537.36" etag="CUK_HuUq_bBmuE3gDf_O" version="13.6.5" type="github">
  <diagram name="Page-1" id="74e2e168-ea6b-b213-b513-2b3c1d86103e">
    <mxGraphModel dx="1298" dy="754" grid="1" gridSize="10" guides="1" tooltips="1" connect="1" arrows="1" fold="1" page="1" pageScale="1" pageWidth="1100" pageHeight="850" background="#ffffff" math="0" shadow="0">
      <root>
        <mxCell id="0" />
        <mxCell id="1" parent="0" />
        <mxCell id="77e6c97f196da883-1" value="落地页审核流程" style="swimlane;html=1;childLayout=stackLayout;startSize=20;rounded=0;shadow=0;labelBackgroundColor=none;strokeWidth=1;fontFamily=Verdana;fontSize=8;align=center;" parent="1" vertex="1">
          <mxGeometry x="70" y="40" width="480" height="610" as="geometry" />
        </mxCell>
        <mxCell id="77e6c97f196da883-26" style="edgeStyle=orthogonalEdgeStyle;rounded=1;html=1;labelBackgroundColor=none;startArrow=none;startFill=0;startSize=5;endArrow=classicThin;endFill=1;endSize=5;jettySize=auto;orthogonalLoop=1;strokeWidth=1;fontFamily=Verdana;fontSize=8" parent="77e6c97f196da883-1" source="77e6c97f196da883-8" target="77e6c97f196da883-11" edge="1">
          <mxGeometry relative="1" as="geometry" />
        </mxCell>
        <mxCell id="77e6c97f196da883-2" value="落地页平台" style="swimlane;html=1;startSize=20;" parent="77e6c97f196da883-1" vertex="1">
          <mxGeometry y="20" width="160" height="590" as="geometry" />
        </mxCell>
        <mxCell id="YllNjaew_7i997uPTPNj-10" style="edgeStyle=orthogonalEdgeStyle;rounded=0;orthogonalLoop=1;jettySize=auto;html=1;exitX=0.5;exitY=1;exitDx=0;exitDy=0;entryX=0.5;entryY=0;entryDx=0;entryDy=0;entryPerimeter=0;" edge="1" parent="77e6c97f196da883-2" source="YllNjaew_7i997uPTPNj-7" target="YllNjaew_7i997uPTPNj-9">
          <mxGeometry relative="1" as="geometry" />
        </mxCell>
        <mxCell id="YllNjaew_7i997uPTPNj-16" value="流程正常结束" style="rounded=1;whiteSpace=wrap;html=1;shadow=0;labelBackgroundColor=none;strokeWidth=1;fontFamily=Verdana;fontSize=8;align=center;" vertex="1" parent="77e6c97f196da883-2">
          <mxGeometry x="20" y="290" width="100" height="60" as="geometry" />
        </mxCell>
        <mxCell id="YllNjaew_7i997uPTPNj-7" value="审核状态更新" style="rounded=1;whiteSpace=wrap;html=1;shadow=0;labelBackgroundColor=none;strokeWidth=1;fontFamily=Verdana;fontSize=8;align=center;" vertex="1" parent="77e6c97f196da883-2">
          <mxGeometry x="20" y="120" width="100" height="60" as="geometry" />
        </mxCell>
        <mxCell id="77e6c97f196da883-8" value="提交审核" style="rounded=1;whiteSpace=wrap;html=1;shadow=0;labelBackgroundColor=none;strokeWidth=1;fontFamily=Verdana;fontSize=8;align=center;" parent="77e6c97f196da883-2" vertex="1">
          <mxGeometry x="20" y="40" width="100" height="60" as="geometry" />
        </mxCell>
        <mxCell id="YllNjaew_7i997uPTPNj-17" style="edgeStyle=orthogonalEdgeStyle;rounded=0;orthogonalLoop=1;jettySize=auto;html=1;exitX=0.5;exitY=1;exitDx=0;exitDy=0;exitPerimeter=0;entryX=0.5;entryY=0;entryDx=0;entryDy=0;" edge="1" parent="77e6c97f196da883-2" source="YllNjaew_7i997uPTPNj-9" target="YllNjaew_7i997uPTPNj-16">
          <mxGeometry relative="1" as="geometry" />
        </mxCell>
        <mxCell id="YllNjaew_7i997uPTPNj-9" value="接口正常返回？" style="strokeWidth=1;html=1;shape=mxgraph.flowchart.decision;whiteSpace=wrap;" vertex="1" parent="77e6c97f196da883-2">
          <mxGeometry x="20" y="200" width="100" height="70" as="geometry" />
        </mxCell>
        <mxCell id="YllNjaew_7i997uPTPNj-20" value="是" style="text;html=1;strokeColor=none;fillColor=none;align=center;verticalAlign=middle;whiteSpace=wrap;rounded=0;" vertex="1" parent="77e6c97f196da883-2">
          <mxGeometry x="70" y="270" width="40" height="20" as="geometry" />
        </mxCell>
        <mxCell id="YllNjaew_7i997uPTPNj-18" value="否" style="text;html=1;strokeColor=none;fillColor=none;align=center;verticalAlign=middle;whiteSpace=wrap;rounded=0;" vertex="1" parent="77e6c97f196da883-2">
          <mxGeometry x="110" y="210" width="40" height="20" as="geometry" />
        </mxCell>
        <mxCell id="YllNjaew_7i997uPTPNj-23" value="审核状态已更新&lt;br&gt;请求返回报错" style="rounded=1;whiteSpace=wrap;html=1;shadow=0;labelBackgroundColor=none;strokeWidth=1;fontFamily=Verdana;fontSize=8;align=center;" vertex="1" parent="77e6c97f196da883-2">
          <mxGeometry x="20" y="420" width="100" height="60" as="geometry" />
        </mxCell>
        <mxCell id="77e6c97f196da883-3" value="落地页服务" style="swimlane;html=1;startSize=20;" parent="77e6c97f196da883-1" vertex="1">
          <mxGeometry x="160" y="20" width="160" height="590" as="geometry" />
        </mxCell>
        <mxCell id="77e6c97f196da883-11" value="落地页推送到&lt;br&gt;审核队列" style="rounded=1;whiteSpace=wrap;html=1;shadow=0;labelBackgroundColor=none;strokeWidth=1;fontFamily=Verdana;fontSize=8;align=center;" parent="77e6c97f196da883-3" vertex="1">
          <mxGeometry x="40" y="40" width="100" height="60" as="geometry" />
        </mxCell>
        <mxCell id="YllNjaew_7i997uPTPNj-3" value="审核结果通知" style="rounded=1;whiteSpace=wrap;html=1;shadow=0;labelBackgroundColor=none;strokeWidth=1;fontFamily=Verdana;fontSize=8;align=center;" vertex="1" parent="77e6c97f196da883-3">
          <mxGeometry x="40" y="120" width="100" height="60" as="geometry" />
        </mxCell>
        <mxCell id="YllNjaew_7i997uPTPNj-12" value="审核结果通知&lt;br&gt;失败" style="rounded=1;whiteSpace=wrap;html=1;shadow=0;labelBackgroundColor=none;strokeWidth=1;fontFamily=Verdana;fontSize=8;align=center;" vertex="1" parent="77e6c97f196da883-3">
          <mxGeometry x="40" y="205" width="100" height="60" as="geometry" />
        </mxCell>
        <mxCell id="YllNjaew_7i997uPTPNj-22" value="审核结果通知" style="rounded=1;whiteSpace=wrap;html=1;shadow=0;labelBackgroundColor=none;strokeWidth=1;fontFamily=Verdana;fontSize=8;align=center;" vertex="1" parent="77e6c97f196da883-3">
          <mxGeometry x="40" y="420" width="100" height="60" as="geometry" />
        </mxCell>
        <mxCell id="YllNjaew_7i997uPTPNj-13" style="edgeStyle=orthogonalEdgeStyle;rounded=0;orthogonalLoop=1;jettySize=auto;html=1;exitX=1;exitY=0.5;exitDx=0;exitDy=0;exitPerimeter=0;entryX=0;entryY=0.5;entryDx=0;entryDy=0;" edge="1" parent="77e6c97f196da883-1" source="YllNjaew_7i997uPTPNj-9" target="YllNjaew_7i997uPTPNj-12">
          <mxGeometry relative="1" as="geometry" />
        </mxCell>
        <mxCell id="77e6c97f196da883-4" value="审核平台" style="swimlane;html=1;startSize=20;" parent="77e6c97f196da883-1" vertex="1">
          <mxGeometry x="320" y="20" width="160" height="590" as="geometry" />
        </mxCell>
        <mxCell id="YllNjaew_7i997uPTPNj-32" style="edgeStyle=orthogonalEdgeStyle;rounded=0;orthogonalLoop=1;jettySize=auto;html=1;exitX=0.5;exitY=0;exitDx=0;exitDy=0;entryX=0.5;entryY=1;entryDx=0;entryDy=0;" edge="1" parent="77e6c97f196da883-4" source="YllNjaew_7i997uPTPNj-25" target="YllNjaew_7i997uPTPNj-21">
          <mxGeometry relative="1" as="geometry" />
        </mxCell>
        <mxCell id="YllNjaew_7i997uPTPNj-21" value="重新审核" style="rounded=1;whiteSpace=wrap;html=1;shadow=0;labelBackgroundColor=none;strokeWidth=1;fontFamily=Verdana;fontSize=8;align=center;" vertex="1" parent="77e6c97f196da883-4">
          <mxGeometry x="40" y="420" width="100" height="60" as="geometry" />
        </mxCell>
        <mxCell id="YllNjaew_7i997uPTPNj-14" value="落地页重新进入&lt;br&gt;审核队列" style="rounded=1;whiteSpace=wrap;html=1;shadow=0;labelBackgroundColor=none;strokeWidth=1;fontFamily=Verdana;fontSize=8;align=center;" vertex="1" parent="77e6c97f196da883-4">
          <mxGeometry x="40" y="205" width="100" height="60" as="geometry" />
        </mxCell>
        <mxCell id="77e6c97f196da883-9" value="人工审核" style="rounded=1;whiteSpace=wrap;html=1;shadow=0;labelBackgroundColor=none;strokeWidth=1;fontFamily=Verdana;fontSize=8;align=center;" parent="77e6c97f196da883-4" vertex="1">
          <mxGeometry x="40" y="40" width="100" height="60" as="geometry" />
        </mxCell>
        <mxCell id="YllNjaew_7i997uPTPNj-26" style="edgeStyle=orthogonalEdgeStyle;rounded=0;orthogonalLoop=1;jettySize=auto;html=1;exitX=0.5;exitY=1;exitDx=0;exitDy=0;entryX=0.5;entryY=0;entryDx=0;entryDy=0;" edge="1" parent="77e6c97f196da883-4" source="YllNjaew_7i997uPTPNj-14" target="YllNjaew_7i997uPTPNj-21">
          <mxGeometry relative="1" as="geometry">
            <mxPoint x="90" y="380" as="targetPoint" />
          </mxGeometry>
        </mxCell>
        <mxCell id="YllNjaew_7i997uPTPNj-30" style="edgeStyle=orthogonalEdgeStyle;rounded=0;orthogonalLoop=1;jettySize=auto;html=1;exitX=1;exitY=0.5;exitDx=0;exitDy=0;entryX=0;entryY=0.5;entryDx=0;entryDy=0;" edge="1" parent="77e6c97f196da883-4" source="YllNjaew_7i997uPTPNj-24" target="YllNjaew_7i997uPTPNj-25">
          <mxGeometry relative="1" as="geometry" />
        </mxCell>
        <mxCell id="YllNjaew_7i997uPTPNj-24" value="审核结果通知&lt;br&gt;失败" style="rounded=1;whiteSpace=wrap;html=1;shadow=0;labelBackgroundColor=none;strokeWidth=1;fontFamily=Verdana;fontSize=8;align=center;" vertex="1" parent="77e6c97f196da883-4">
          <mxGeometry x="-120" y="500" width="100" height="60" as="geometry" />
        </mxCell>
        <mxCell id="YllNjaew_7i997uPTPNj-25" value="落地页重新进入&lt;br&gt;审核队列" style="rounded=1;whiteSpace=wrap;html=1;shadow=0;labelBackgroundColor=none;strokeWidth=1;fontFamily=Verdana;fontSize=8;align=center;" vertex="1" parent="77e6c97f196da883-4">
          <mxGeometry x="40" y="500" width="100" height="60" as="geometry" />
        </mxCell>
        <mxCell id="YllNjaew_7i997uPTPNj-1" style="edgeStyle=orthogonalEdgeStyle;rounded=0;orthogonalLoop=1;jettySize=auto;html=1;exitX=1;exitY=0.5;exitDx=0;exitDy=0;entryX=0;entryY=0.5;entryDx=0;entryDy=0;" edge="1" parent="77e6c97f196da883-1" source="77e6c97f196da883-11" target="77e6c97f196da883-9">
          <mxGeometry relative="1" as="geometry" />
        </mxCell>
        <mxCell id="YllNjaew_7i997uPTPNj-4" style="edgeStyle=orthogonalEdgeStyle;rounded=0;orthogonalLoop=1;jettySize=auto;html=1;exitX=0.5;exitY=1;exitDx=0;exitDy=0;entryX=1;entryY=0.5;entryDx=0;entryDy=0;" edge="1" parent="77e6c97f196da883-1" source="77e6c97f196da883-9" target="YllNjaew_7i997uPTPNj-3">
          <mxGeometry relative="1" as="geometry" />
        </mxCell>
        <mxCell id="YllNjaew_7i997uPTPNj-8" style="edgeStyle=orthogonalEdgeStyle;rounded=0;orthogonalLoop=1;jettySize=auto;html=1;exitX=0;exitY=0.5;exitDx=0;exitDy=0;entryX=1;entryY=0.5;entryDx=0;entryDy=0;" edge="1" parent="77e6c97f196da883-1" source="YllNjaew_7i997uPTPNj-3" target="YllNjaew_7i997uPTPNj-7">
          <mxGeometry relative="1" as="geometry" />
        </mxCell>
        <mxCell id="YllNjaew_7i997uPTPNj-15" style="edgeStyle=orthogonalEdgeStyle;rounded=0;orthogonalLoop=1;jettySize=auto;html=1;exitX=1;exitY=0.5;exitDx=0;exitDy=0;entryX=0;entryY=0.5;entryDx=0;entryDy=0;" edge="1" parent="77e6c97f196da883-1" source="YllNjaew_7i997uPTPNj-12" target="YllNjaew_7i997uPTPNj-14">
          <mxGeometry relative="1" as="geometry" />
        </mxCell>
        <mxCell id="YllNjaew_7i997uPTPNj-27" style="edgeStyle=orthogonalEdgeStyle;rounded=0;orthogonalLoop=1;jettySize=auto;html=1;exitX=0;exitY=0.5;exitDx=0;exitDy=0;" edge="1" parent="77e6c97f196da883-1" source="YllNjaew_7i997uPTPNj-21" target="YllNjaew_7i997uPTPNj-22">
          <mxGeometry relative="1" as="geometry" />
        </mxCell>
        <mxCell id="YllNjaew_7i997uPTPNj-28" style="edgeStyle=orthogonalEdgeStyle;rounded=0;orthogonalLoop=1;jettySize=auto;html=1;exitX=0;exitY=0.5;exitDx=0;exitDy=0;entryX=1;entryY=0.5;entryDx=0;entryDy=0;" edge="1" parent="77e6c97f196da883-1" source="YllNjaew_7i997uPTPNj-22" target="YllNjaew_7i997uPTPNj-23">
          <mxGeometry relative="1" as="geometry" />
        </mxCell>
        <mxCell id="YllNjaew_7i997uPTPNj-29" style="edgeStyle=orthogonalEdgeStyle;rounded=0;orthogonalLoop=1;jettySize=auto;html=1;exitX=0.5;exitY=1;exitDx=0;exitDy=0;entryX=0;entryY=0.5;entryDx=0;entryDy=0;" edge="1" parent="77e6c97f196da883-1" source="YllNjaew_7i997uPTPNj-23" target="YllNjaew_7i997uPTPNj-24">
          <mxGeometry relative="1" as="geometry" />
        </mxCell>
      </root>
    </mxGraphModel>
  </diagram>
</mxfile>
